<svg 
	xmlns="http://www.w3.org/2000/svg"
 	viewBox="0 0 100.23761 25.482464"
	height="42">
	<defs>
		<style>
			.logo { fill: #63D38B; }
			.text { fill: #000000ff; }
			@media (prefers-color-scheme: dark) {
				.logo { fill: #40FFC8; }
				.text { fill: #ffffff; }
			}
		</style>
	</defs>
	<path
		class="logo"
		d="M 10.800211,25.40495 C 9.8902174,25.231921 9.6455426,25.109402 5.8669308,22.93465 0.02468403,19.572186 -0.05039609,19.468872 0.00873348,14.873478 c 0.0131031,-1.018337 0.0298061,-2.934341 0.0371179,-4.257787 L 0.05914555,8.2094247 0.16972736,7.7833151 C 0.57823891,6.2091798 1.3663847,5.3870312 3.7363825,4.062785 4.3016044,3.7469649 5.497218,3.0597574 6.3933016,2.5356574 9.7278429,0.58535588 10.572838,0.15787198 11.295383,0.0556908 L 11.689184,0 12.077976,0.0792859 c 1.006809,0.20531773 1.900716,0.9291986 2.22815,1.8043434 0.203715,0.5444777 0.213794,0.8758036 0.197006,6.4761871 l -0.01608,5.3639686 -0.0876,0.300783 c -0.215044,0.738372 -0.691778,1.141233 -2.699193,2.28094 -0.752733,0.427363 -1.9671108,1.135786 -2.6986168,1.574273 -0.7315064,0.438487 -1.4720299,0.850184 -1.645608,0.914882 L 7.0404379,18.912297 H 6.6400928 c -1.2106292,0 -2.2728627,-0.874448 -2.5271837,-2.080418 l -0.074002,-0.350914 2.657e-4,-2.581723 C 4.0395834,9.9453638 4.1321282,9.3112235 4.8309485,8.4739175 5.276723,7.9398036 5.5138219,7.7776984 7.4209765,6.703113 7.9999844,6.376871 9.3520339,5.6043567 10.425531,4.9864148 11.499027,4.3684726 12.407671,3.8512457 12.444738,3.8370216 l 0.0674,-0.025862 -0.01399,0.6926278 -0.01399,0.6926279 -0.42611,0.2466738 C 11.823692,5.57876 10.549123,6.3095181 9.2256763,7.0669956 4.9599418,9.5084992 5.2942366,8.9437009 5.2892105,13.717744 l -0.00311,2.953882 0.1329627,0.271766 c 0.1923429,0.393135 0.6328697,0.692871 1.0592686,0.720731 0.4029223,0.02633 0.5025487,-0.0094 1.2202844,-0.437687 0.3987338,-0.237928 1.6273208,-0.950635 2.7301928,-1.583793 1.102872,-0.633158 2.148804,-1.253592 2.324294,-1.378743 l 0.319072,-0.227548 0.09344,-0.211229 0.09344,-0.21123 0.05793,-1.524166 c 0.07779,-2.046418 0.07562,-8.772934 -0.003,-9.2434434 C 13.203173,2.182814 12.893509,1.7409471 12.335607,1.4501856 L 12.032988,1.2924695 11.581813,1.2919392 11.130638,1.2914088 10.704529,1.5020299 C 9.7431067,1.9772501 7.3393182,3.3374794 4.9395156,4.7642727 1.0364114,7.0848481 1.2140809,6.6654229 1.2398031,13.498197 l 0.015192,4.03551 0.138536,0.408934 c 0.4052674,1.196279 0.6703859,1.402008 5.0749665,3.938126 3.7823724,2.177855 3.8840454,2.228583 4.7141644,2.352048 l 0.374086,0.05564 0.377192,-0.0561 c 0.737466,-0.109685 0.983588,-0.220876 2.580511,-1.165804 0.53765,-0.318137 1.78966,-1.036869 2.782245,-1.597181 2.545308,-1.436822 2.922778,-1.6624 3.3504,-2.002215 0.615983,-0.489499 0.949513,-1.012952 1.125631,-1.766599 l 0.08585,-0.36737 V 12.470521 7.6078581 L 21.767314,7.3461646 C 21.637489,6.9738902 21.302145,6.6222374 20.871518,6.4068034 L 20.516646,6.2292681 H 20.147402 19.778158 V 5.6026362 4.9760044 h 0.379673 0.379673 l 0.384818,0.1286319 c 1.386837,0.4635733 2.061049,1.3986223 2.166397,3.0045273 0.06251,0.952902 0.06025,7.6758304 -0.0029,8.6660104 -0.163548,2.563784 -0.681307,3.203651 -4.184929,5.171897 -1.94267,1.091343 -3.003164,1.700282 -4.079646,2.342545 -1.801777,1.074997 -2.790635,1.349282 -4.021017,1.115334 z M 10.56778,21.450267 c -0.981222,-0.24979 -1.7128353,-1.008433 -1.9472447,-2.019185 -0.090773,-0.391409 -0.137074,-0.330663 0.56082,-0.735784 l 0.5572446,-0.323475 0.026436,0.423732 0.026435,0.423732 0.1587645,0.322496 c 0.2502726,0.508376 0.6946266,0.764919 1.2293196,0.709734 0.320553,-0.03308 0.428721,-0.08686 1.730718,-0.860364 0.565222,-0.335794 1.692661,-0.992605 2.50542,-1.459578 1.877475,-1.07871 2.097929,-1.288155 2.285043,-2.170932 l 0.07046,-0.332419 8.72e-4,-5.116642 c 0.0011,-6.3547395 0.03264,-6.1545892 -1.059883,-6.721477 l -0.267707,-0.1389081 -0.401045,-0.00209 c -0.220574,-0.00115 -0.47436,0.016624 -0.563968,0.039494 L 15.31654,3.5301819 V 2.9018415 2.2734981 l 0.18799,-0.038197 c 1.288441,-0.2617915 2.849749,0.6548998 3.266129,1.9176428 0.194862,0.5909547 0.202286,0.8191052 0.20541,6.3123551 l 0.003,5.363969 -0.07642,0.349476 c -0.26817,1.226306 -0.486721,1.424512 -3.485895,3.161369 -1.033943,0.598769 -2.184439,1.271158 -2.556658,1.494199 -1.079097,0.646613 -1.61076,0.789471 -2.292362,0.615955 z M 8.5363826,14.442323 c -0.030626,-3.22598 -0.047189,-3.194425 2.4321494,-4.6335358 0.802963,-0.4660722 1.478104,-0.8549238 1.500314,-0.8641143 0.02221,-0.00919 0.04038,0.2957061 0.04038,0.6775485 V 10.31648 l -1.129864,0.650911 c -1.7063679,0.983033 -1.6182595,0.834586 -1.6235026,2.735312 l -0.00381,1.382573 -0.5591883,0.321865 c -0.3075534,0.177026 -0.5782584,0.329385 -0.6015666,0.338576 -0.023308,0.0092 -0.048018,-0.577337 -0.054912,-1.303394 z M 15.316539,7.9930252 V 7.2945798 l 0.801896,-0.4574603 c 0.441042,-0.2516027 0.813261,-0.4574598 0.827154,-0.4574598 0.01389,0 0.02488,0.3101828 0.02442,0.689295 l -8.42e-4,0.6892951 -0.512997,0.2877859 c -0.282148,0.1582822 -0.653989,0.368257 -0.826313,0.4666107 L 15.316538,8.691471 V 7.9930252 Z" />
	<path
		class="text"
		d="M 46.497741,17.280042 C 45.979889,17.168419 45.476058,16.89146 45.091765,16.507167 l -0.33557,-0.335571 -0.207985,-0.421817 c -0.496107,-1.006166 -0.49813,-2.420353 -0.0049,-3.448622 l 0.201456,-0.420017 0.362666,-0.361632 c 1.14581,-1.142542 3.219652,-1.129834 4.35744,0.0267 l 0.335244,0.340767 0.19949,0.417099 c 0.109719,0.229404 0.238018,0.594395 0.285106,0.81109 l 0.08562,0.393991 -0.02485,0.683816 -0.02485,0.683816 -0.133412,0.411797 c -0.495713,1.530097 -2.017939,2.351751 -3.689445,1.991457 z m 1.233823,-1.198992 c 1.175868,-0.349195 1.529919,-2.702032 0.565402,-3.757367 l -0.249049,-0.2725 -0.254901,-0.08466 -0.254902,-0.08466 -0.382327,0.02268 c -0.91808,0.05447 -1.458393,0.830624 -1.458393,2.094965 0,1.536388 0.870467,2.42713 2.03417,2.081547 z m 15.44779,1.225424 C 62.173645,17.13713 61.453249,16.570828 61.21749,15.764262 l -0.07762,-0.265529 0.06066,-0.0187 c 0.03336,-0.01028 0.241128,-0.03227 0.461703,-0.04887 0.220574,-0.0166 0.527669,-0.04353 0.682432,-0.05986 l 0.281383,-0.02968 0.03583,0.143557 c 0.0541,0.216723 0.259797,0.45755 0.494638,0.579109 l 0.210152,0.108778 0.439811,0.02227 c 0.5455,0.02763 0.825429,-0.04535 1.094119,-0.285234 l 0.202853,-0.181108 0.02694,-0.204896 c 0.06685,-0.508632 -0.223929,-0.698452 -1.489058,-0.972046 -1.413411,-0.305661 -1.95261,-0.619968 -2.202952,-1.284125 l -0.111616,-0.296113 0.02099,-0.42611 0.02099,-0.42611 0.130876,-0.254945 c 0.919946,-1.792038 4.466156,-1.513917 4.990151,0.391366 l 0.0513,0.18655 -0.158482,0.02454 c -0.179287,0.02777 -1.102221,0.128727 -1.17674,0.128727 -0.02678,0 -0.06318,-0.05776 -0.0809,-0.128363 -0.104457,-0.416183 -0.669067,-0.70373 -1.30204,-0.663108 l -0.370455,0.02377 -0.230606,0.135145 c -0.823685,0.482711 -0.435995,1.154495 0.816291,1.414453 1.003027,0.208215 1.27469,0.280624 1.584396,0.422305 0.586006,0.268078 0.873891,0.583986 1.007524,1.105608 l 0.08156,0.318364 -0.05271,0.318061 c -0.213285,1.28715 -1.734081,2.0583 -3.479571,1.764387 z m 6.854681,-0.02241 C 67.040995,16.62517 66.7625,11.849603 69.658056,10.836841 l 0.325848,-0.11397 0.576501,-0.02046 0.576502,-0.02046 0.345234,0.08053 c 1.374359,0.32059 2.186359,1.484778 2.186359,3.134645 v 0.503419 h -2.262778 -2.262778 l 0.03353,0.288251 c 0.173151,1.488648 2.149884,2.092644 2.910505,0.889313 l 0.147038,-0.23262 0.153269,0.02554 c 0.0843,0.01405 0.393349,0.05257 0.686768,0.08562 l 0.5335,0.06008 -0.04081,0.1423 c -0.348874,1.216453 -1.980132,1.966827 -3.53271,1.625039 z m 2.180679,-3.981108 c 0,-0.44841 -0.404744,-1.100933 -0.820728,-1.323165 l -0.206949,-0.110559 -0.47624,-1.51e-4 -0.47624,-1.5e-4 -0.267331,0.148083 c -0.418936,0.23206 -0.703723,0.655552 -0.785346,1.167844 l -0.03394,0.213055 h 1.533388 1.533389 v -0.09498 z m 17.069452,3.981299 C 88.146132,17.034448 87.330809,16.231383 87.01809,15.052244 l -0.08642,-0.325848 -0.0015,-0.701828 -0.0015,-0.701827 0.08762,-0.325849 c 0.151189,-0.562232 0.463778,-1.13048 0.815153,-1.481857 l 0.315547,-0.315548 0.418154,-0.200651 c 0.548142,-0.263027 0.899642,-0.326541 1.632341,-0.294957 l 0.590512,0.02545 0.311953,0.110244 c 2.116,0.7478 2.745485,3.976155 1.099608,5.63943 l -0.358819,0.362611 -0.375979,0.18377 c -0.644669,0.315098 -1.475302,0.413701 -2.180679,0.258866 z m 1.360267,-1.269669 c 1.251279,-0.64145 1.25555,-3.369314 0.0062,-3.991868 l -0.258263,-0.128698 -0.378666,5.01e-4 -0.378671,5.02e-4 -0.251019,0.116892 c -1.324845,0.61695 -1.243869,3.632399 0.109154,4.064851 0.332461,0.106261 0.880393,0.07668 1.151218,-0.06216 z m 5.65801,1.294879 c -1.039537,-0.230235 -1.778031,-0.995664 -2.066,-2.141353 l -0.08582,-0.341455 -0.0011,-0.827154 -0.0011,-0.827154 0.08823,-0.325849 c 0.289559,-1.069353 0.92321,-1.795516 1.79886,-2.061487 l 0.346753,-0.105323 0.511482,0.02068 0.511482,0.02068 0.234395,0.105774 c 0.290061,0.130895 0.645306,0.453172 0.853232,0.774058 0.238933,0.368739 0.240833,0.357805 0.240833,-1.386243 V 8.5854038 h 0.751958 0.751962 v 4.3112272 4.311227 H 99.485648 98.73369 v -0.501305 c 0,-0.587523 -0.0099,-0.594279 -0.295901,-0.201563 -0.252558,0.346815 -0.449857,0.509282 -0.829575,0.683125 l -0.271803,0.124435 -0.416766,0.02066 c -0.229222,0.01137 -0.507,6.77e-4 -0.617287,-0.02375 z m 1.504282,-1.322352 c 1.864025,-0.868033 0.882128,-4.5954 -1.058732,-4.019027 -1.737861,0.51609 -1.338415,4.132182 0.4568,4.135309 l 0.350914,6.12e-4 z M 32.260665,12.896631 V 8.5854038 l 1.867363,0.00175 1.867363,0.00175 0.375979,0.068217 c 0.957602,0.1737444 1.608553,0.6561186 1.882724,1.3951552 l 0.09743,0.262634 -0.0011,0.52637 -0.0011,0.526371 -0.107177,0.234394 c -0.202233,0.442271 -0.954412,1.043934 -1.305095,1.043934 -0.177172,0 -0.0075,0.123913 0.239561,0.174948 0.797786,0.164801 1.391013,0.831911 1.516915,1.705838 l 0.05424,0.37649 -0.0608,0.354554 c -0.164398,0.958691 -0.784827,1.580109 -1.849445,1.852393 l -0.381837,0.09766 h -2.097464 -2.097464 z m 4.164128,2.91709 c 0.995755,-0.392822 0.980885,-1.72579 -0.02518,-2.256755 l -0.253834,-0.133964 -1.165535,-0.01587 -1.165536,-0.01587 v 1.286353 1.286353 l 1.165536,-0.02009 1.165535,-0.02009 z m -0.277764,-3.719179 0.349668,-0.175457 0.150391,-0.217373 0.150392,-0.217373 v -0.442538 -0.442539 l -0.150392,-0.217373 c -0.103691,-0.149873 -0.242429,-0.263352 -0.446784,-0.365441 l -0.296393,-0.1480671 -1.044599,-0.021085 -1.0446,-0.021085 v 1.2396571 1.239658 l 0.991324,-0.01776 0.991325,-0.01776 z m 3.883871,1.879896 v -3.233421 h 0.726893 0.726893 v 0.551436 c 0,0.620562 0.02586,0.660266 0.192882,0.296185 0.289779,-0.631658 0.977271,-0.989454 1.749677,-0.910595 l 0.263186,0.02687 v 0.68797 0.687971 l -0.263186,-0.04848 C 42.654366,11.89 41.946341,12.205146 41.654494,12.821436 l -0.118697,0.250653 -5.02e-4,2.067885 -5.01e-4,2.067885 h -0.751958 -0.751959 v -3.23342 z m 12.763579,3.145692 c -0.05566,-0.184448 -1.736026,-6.140717 -1.765171,-6.256846 l -0.03068,-0.122267 h 0.755457 0.755462 l 0.04972,0.18799 c 0.02735,0.103394 0.279508,1.112898 0.560369,2.243342 0.48004,1.932117 0.555316,2.188859 0.62217,2.122004 0.01481,-0.01481 0.26468,-0.960773 0.555266,-2.102141 0.290587,-1.141369 0.550424,-2.159811 0.577409,-2.263205 l 0.04907,-0.18799 0.762556,4.01e-4 0.762561,4.01e-4 0.576501,2.258771 c 0.695837,2.726326 0.562204,2.710043 1.203604,0.146664 0.293204,-1.171802 0.548825,-2.192585 0.56805,-2.268407 l 0.03496,-0.137859 h 0.751005 0.751001 l -0.0013,0.06266 c -7.02e-4,0.03447 -0.404273,1.483864 -0.896766,3.220888 l -0.895446,3.158224 -0.799282,0.01373 -0.799281,0.01374 -0.591546,-2.144283 c -0.325347,-1.179355 -0.61073,-2.165337 -0.634181,-2.191071 -0.08342,-0.09153 -0.05087,-0.197417 -1.096967,3.56846 l -0.212363,0.76449 h -0.792835 -0.792835 l -0.02647,-0.08773 z m 22.127284,-3.145692 v -3.233421 h 0.751958 0.751959 v 0.551436 c 0,0.603707 0.02933,0.6626 0.16531,0.331896 0.265452,-0.645583 0.953689,-1.017399 1.752183,-0.946603 l 0.288251,0.02556 v 0.688031 0.688031 l -0.288251,-0.0468 c -0.791015,-0.128424 -1.499936,0.185188 -1.771794,0.7838 l -0.09337,0.205591 -0.0011,2.092951 -0.0011,2.09295 h -0.777023 -0.777024 v -3.23342 z m 4.762403,-1.077807 V 8.5854038 l 1.817232,0.00175 1.817232,0.00175 0.40099,0.071435 c 0.254989,0.045425 0.54924,0.1448948 0.808144,0.2731864 l 0.407151,0.2017509 0.301414,0.3222131 c 1.272163,1.3599498 0.900491,3.6985968 -0.714565,4.4961648 -0.5933,0.292991 -0.921605,0.344749 -2.193212,0.345764 l -1.090339,8.69e-4 v 1.453786 1.453786 h -0.777024 -0.777023 z m 3.940366,-0.05054 0.345796,-0.175864 0.161575,-0.241357 c 0.555662,-0.830046 0.278315,-2.013021 -0.56262,-2.399742 L 83.31863,9.9138638 82.278421,9.8977008 81.238213,9.8815378 v 1.5878892 1.587888 l 1.020262,-0.01768 1.020261,-0.01768 z" />
</svg>
