<svg xmlns="http://www.w3.org/2000/svg"
 	 viewBox="0 0 640.11536 127.84721"
	 height="30">
	<style>
		@media (prefers-color-scheme: dark) {
			.logo { fill: white; }
		}
		@media (prefers-color-scheme: light) {
			.logo { fill: black; }
		}
	</style>
	<g transform="translate(-4.6655759,-54.147434)">
    <path
	   class="logo"
       d="m 70.566667,181.6927 c -0.320757,-0.12947 -0.583195,-0.85169 -0.583195,-1.60505 v -1.36971 l 10.38088,0.12553 10.38088,0.12553 0.157448,1.11362 c 0.0866,0.61251 -0.123346,1.29163 -0.466556,1.50918 -0.655176,0.41528 -18.861184,0.50767 -19.869457,0.10092 z m 64.486233,-0.35453 c -0.73609,-0.54651 -0.81544,-0.84864 -0.40053,-1.5253 0.47373,-0.77257 1.37953,-0.84379 10.7308,-0.84379 h 10.21341 v 1.39967 1.39966 l -9.81288,0.12568 c -8.01983,0.10264 -9.98059,9.4e-4 -10.7308,-0.55587 z m 65.17563,0.25369 c -0.34322,-0.21754 -0.55317,-0.89666 -0.46657,-1.50916 l 0.15747,-1.11362 h 31.95912 31.95911 l 0.15744,1.11362 c 0.0866,0.6125 -0.12333,1.29162 -0.46655,1.50916 -0.34321,0.21755 -14.5857,0.39555 -31.65,0.39555 -17.0643,0 -31.30681,-0.178 -31.65002,-0.39555 z m 73.75096,0.0216 c -0.46072,-0.29246 -0.5623,-4.17669 -0.46657,-17.83865 l 0.12248,-17.46474 h 1.39967 1.39967 l 0.12233,17.46477 c 0.12422,17.72871 0.0838,18.2125 -1.52207,18.2125 -0.25661,0 -0.73159,-0.16825 -1.05552,-0.37387 z m 12.56197,-0.0216 c -0.34321,-0.21754 -0.55316,-0.89666 -0.46655,-1.50916 l 0.15746,-1.11362 10.38086,-0.12553 10.38088,-0.12554 v 1.35868 c 0,0.80855 -0.29883,1.47334 -0.73799,1.64188 -1.13634,0.43605 -19.00806,0.32126 -19.71466,-0.12656 z m 43.02838,-0.25798 c -0.14288,-0.37255 -0.18679,-1.05704 -0.0974,-1.52108 0.1539,-0.79918 1.28284,-0.84372 21.38442,-0.84372 h 21.22191 v 1.39967 1.39966 l -21.1245,0.12145 c -18.11311,0.10414 -21.16154,0.0248 -21.38438,-0.55594 z m 86.62502,0.22751 c -0.5468,-0.34593 -0.5698,-0.65319 -0.12247,-1.63491 l 0.55082,-1.2089 10.10299,0.12567 c 9.16574,0.11402 10.15096,0.20403 10.61999,0.96955 0.41388,0.67542 0.33635,0.97799 -0.3886,1.51631 -0.72055,0.53506 -2.86605,0.67105 -10.49751,0.66537 -5.27554,-0.004 -9.89486,-0.19885 -10.26518,-0.43316 z m 74.27255,0.13137 c -0.45186,-0.18233 -0.5816,-4.08787 -0.57605,-17.34239 0.004,-9.40889 0.19133,-17.39793 0.41649,-17.75343 0.27098,-0.42786 0.82055,-0.54312 1.62582,-0.34102 l 1.21644,0.30532 v 17.43706 c 0,15.46992 -0.0833,17.46901 -0.73798,17.72025 -0.82623,0.31706 -1.10417,0.31337 -1.94472,-0.0258 z m 12.59703,0.004 c -1.03701,-0.42666 -0.69171,-2.45056 0.46655,-2.73486 0.57737,-0.14171 5.35374,-0.19819 10.61416,-0.12553 l 9.56441,0.1321 v 1.39966 1.39967 l -10.03096,0.0845 c -5.51703,0.0463 -10.29341,-0.0237 -10.61416,-0.15551 z m 30.52059,-0.008 c -0.54388,-0.54386 -0.36639,-35.05799 0.182,-35.39692 0.2712,-0.1676 1.00603,-0.17601 1.63294,-0.0187 l 1.13989,0.28609 v 17.43707 c 0,15.46993 -0.0833,17.469 -0.73799,17.72026 -0.9649,0.37027 -1.8296,0.35941 -2.21684,-0.0278 z m 64.76503,-0.24276 c -0.13006,-0.33896 -0.18137,-8.38363 -0.11402,-17.87703 l 0.12248,-17.26078 h 1.39966 1.39967 v 17.72915 17.72913 l -1.28568,0.14789 c -0.75209,0.0864 -1.38381,-0.10789 -1.52219,-0.4684 z m 12.91464,0.14915 c -0.34319,-0.22039 -0.55315,-0.90185 -0.46655,-1.51434 l 0.15746,-1.11367 10.41112,-0.12568 10.4111,-0.12567 -0.14687,1.52531 -0.14687,1.52532 -9.79769,0.1146 c -5.38872,0.0631 -10.0785,-0.0656 -10.4217,-0.28604 z m 30.36699,0.0957 c -0.45152,-0.18221 -0.58319,-4.06329 -0.58319,-17.19242 0,-15.02912 0.0862,-17.04329 0.75796,-17.71511 0.41693,-0.41688 1.20424,-0.69432 1.74959,-0.6165 0.9884,0.14098 0.992,0.19778 1.11405,17.60623 0.0958,13.66194 -0.005,17.54616 -0.46656,17.83863 -0.64796,0.4113 -1.67069,0.44279 -2.57185,0.0792 z M 59.924531,168.65923 c -2.165769,-4.51522 -3.937751,-8.32142 -3.937751,-8.45823 0,-0.13676 -0.912118,-2.16369 -2.026924,-4.50418 -3.65792,-7.67965 -3.674541,-7.7546 -1.719713,-7.7546 1.464622,0 1.365595,-0.15681 5.156527,8.16473 0.467591,1.02643 2.756605,5.92697 5.086689,10.89012 2.330085,4.96314 4.118629,9.21465 3.974551,9.44777 -0.14405,0.23314 -0.787037,0.42387 -1.4288,0.42387 -1.051326,0 -1.556593,-0.81258 -5.104579,-8.20948 z m 34.215992,7.95008 c -0.320159,-0.32016 0.03646,-1.2123 3.160366,-7.90534 1.077891,-2.30945 2.426979,-5.24876 2.997961,-6.53178 0.57099,-1.28303 2.30886,-5.00966 3.86192,-8.28138 2.5815,-5.43821 2.93105,-5.94859 4.07412,-5.94859 0.68771,0 1.36921,0.11882 1.51449,0.26413 0.23572,0.23573 -1.57389,4.32377 -6.38865,14.43239 -0.85556,1.79624 -2.31276,4.9455 -3.23824,6.99834 -2.964804,6.57645 -3.224138,6.98811 -4.495882,7.13641 -0.651123,0.076 -1.31986,10e-4 -1.486085,-0.16418 z m 34.763787,-0.11402 c -0.31079,-0.19751 -0.90653,-1.19155 -1.32384,-2.209 -0.4173,-1.01743 -1.6601,-3.73941 -2.76176,-6.04887 -1.10168,-2.30946 -2.6324,-5.56368 -3.4016,-7.23162 -0.76921,-1.66795 -2.36888,-5.10775 -3.55485,-7.64403 -1.18594,-2.53625 -2.15626,-4.79322 -2.15626,-5.01548 0,-0.22224 0.64445,-0.40407 1.43209,-0.40407 1.3718,0 1.54002,0.23087 3.99456,5.48203 1.40935,3.01512 3.26613,6.95169 4.12616,8.74794 4.52879,9.45867 5.79908,12.25741 6.09067,13.41918 0.28178,1.12271 0.1874,1.27649 -0.77973,1.2702 -0.60519,-0.004 -1.35464,-0.16876 -1.66544,-0.36628 z m 30.06836,0.0948 c -0.15324,-0.15323 0.41508,-1.78035 1.26293,-3.61581 0.84786,-1.83546 2.32002,-5.0168 3.27148,-7.06965 0.95146,-2.05285 2.25237,-4.88718 2.8909,-6.29852 0.63854,-1.41133 2.14443,-4.56059 3.3464,-6.99834 2.03447,-4.1261 2.282,-4.43229 3.58322,-4.43229 0.83219,0 1.35413,0.22532 1.28992,0.55686 -0.0958,0.49418 -2.19272,5.09927 -5.48267,12.04016 -0.60817,1.28303 -2.41479,5.16712 -4.01473,8.6313 -1.59994,3.46418 -3.11078,6.56095 -3.35742,6.88171 -0.46135,0.59998 -2.29451,0.80011 -2.79003,0.30458 z m 33.02363,-3.3372 c -0.94194,-1.9887 -1.89421,-4.03571 -2.11614,-4.54893 -0.22194,-0.51321 -2.41038,-5.21503 -4.86318,-10.4485 -2.4528,-5.23346 -4.45964,-9.70821 -4.45964,-9.94389 0,-0.6921 2.90102,-0.20197 3.33668,0.56375 0.63914,1.12335 7.86067,16.40195 7.86067,16.63081 0,0.11445 0.93337,2.1404 2.07413,4.50224 1.14079,2.36185 2.2133,4.87164 2.38337,5.5773 0.28542,1.18428 0.20098,1.28303 -1.09703,1.28303 -1.29568,0 -1.54091,-0.28432 -3.11886,-3.61581 z m 183.37977,3.2001 c -0.14127,-0.22865 2.57562,-6.3988 6.03766,-13.71144 3.46209,-7.31266 6.29464,-13.52508 6.29464,-13.80538 0,-0.63652 2.08079,-1.19048 3.06014,-0.8147 0.65014,0.2495 0.65464,0.41972 0.0412,1.56663 -0.37869,0.70769 -2.73178,5.69568 -5.22906,11.0844 -6.40237,13.81515 -7.13859,15.30016 -7.79075,15.71434 -0.78078,0.49587 -2.09759,0.4774 -2.41354,-0.0339 z m 34.53498,-0.63404 c -0.37404,-0.57736 -2.19856,-4.30399 -4.05447,-8.28138 -1.85592,-3.97739 -4.47843,-9.54108 -5.8278,-12.36375 -1.34938,-2.82266 -2.5928,-5.61921 -2.76318,-6.21455 -0.28432,-0.99371 -0.18359,-1.0702 1.22908,-0.93312 1.30834,0.127 1.68839,0.46379 2.53761,2.24884 8.70161,18.291 12.24165,26.06667 11.98449,26.32385 -0.64773,0.64772 -2.47873,0.1879 -3.10573,-0.77989 z m 30.73421,-0.23328 c 0.17445,-0.70566 1.21374,-3.17259 2.30964,-5.48203 1.09585,-2.30946 3.87853,-8.18807 6.1837,-13.06359 4.05908,-8.58516 4.23787,-8.86918 5.67239,-9.01078 0.81466,-0.0803 1.48253,0.0245 1.48421,0.23328 0.004,0.32435 -3.60666,8.22307 -9.55369,20.90797 -0.84207,1.79624 -1.99573,4.26315 -2.56361,5.48203 -0.89762,1.9265 -1.21665,2.21615 -2.44117,2.21615 -1.30253,0 -1.38474,-0.0966 -1.09147,-1.28303 z m -124.23025,-2.38411 c -0.41169,-0.26108 -0.56342,-1.20719 -0.46656,-2.90883 l 0.14347,-2.5219 h 2.54483 2.54483 l -0.13574,2.55939 c -0.0748,1.40765 -0.23504,2.71984 -0.35626,2.91597 -0.29458,0.47666 -3.50547,0.44312 -4.27455,-0.0446 z m -72.91268,-33.18539 c -0.40697,-0.238 -0.7045,-0.91395 -0.66117,-1.50212 l 0.0788,-1.06939 h 10.45246 c 9.69018,0 10.46424,0.0613 10.61402,0.83889 0.38922,2.02112 -0.43452,2.19451 -10.35352,2.17954 -5.16485,-0.008 -9.72361,-0.20891 -10.13058,-0.44692 z m 86.42886,0.0514 c -0.3432,-0.21754 -0.55315,-0.89668 -0.46656,-1.50916 l 0.15747,-1.11364 h 10.26424 10.26423 l 0.15747,1.11364 c 0.0866,0.61248 -0.12334,1.29162 -0.46656,1.50916 -0.34319,0.21755 -4.82302,0.39554 -9.95514,0.39554 -5.13212,0 -9.61194,-0.17799 -9.95515,-0.39554 z m 160.73549,-0.17337 c -0.72884,-0.53428 -0.78526,-2.03122 -0.6724,-17.84578 l 0.1232,-17.26259 1.51631,-0.1462 1.51631,-0.1462 v 17.70878 c 0,15.71771 -0.083,17.74063 -0.73799,17.99199 -0.93796,0.35993 -0.81676,0.38076 -1.74545,-0.3 z m 42.83605,-0.46655 c -0.14055,-0.57737 -0.19708,-8.60797 -0.12554,-17.84579 l 0.13005,-16.79603 h 1.39968 1.39966 l 0.12247,17.46476 c 0.0958,13.66196 -0.005,17.54617 -0.46655,17.83865 -1.09707,0.69639 -2.2014,0.39935 -2.45973,-0.66159 z m 64.84733,0.49594 c -0.13006,-0.33895 -0.18137,-8.38363 -0.11402,-17.87703 l 0.12248,-17.26073 1.52185,-0.1466 1.52191,-0.14662 -0.12218,17.87575 -0.12218,17.87576 -1.28568,0.14789 c -0.75209,0.0864 -1.38381,-0.1079 -1.52218,-0.46842 z m 43.2583,-0.005 c -0.41477,-0.41478 -0.55986,-4.92476 -0.55986,-17.40255 0,-12.47778 0.14507,-16.98778 0.55986,-17.40255 0.30793,-0.30793 1.14773,-0.55986 1.86623,-0.55986 h 1.30636 v 17.67921 c 0,15.69074 -0.083,17.71108 -0.738,17.96242 -1.10755,0.42502 -1.81309,0.34484 -2.43459,-0.27667 z m -371.00563,-4.0784 c 0,-0.24194 0.4077,-1.13422 0.90601,-1.98286 0.49831,-0.84864 1.36209,-3.2111 1.91952,-5.24989 0.86825,-3.17567 0.97896,-4.51289 0.77255,-9.33112 -0.24067,-5.61784 -0.71044,-7.625 -2.69528,-11.51556 -1.04946,-2.05713 -0.88092,-2.73996 0.67634,-2.73996 1.35127,0 2.61972,1.43502 4.12401,4.66557 2.10818,4.52745 2.43606,6.08172 2.41124,11.43063 -0.0254,5.47251 -0.78015,8.15385 -3.69543,13.12839 -1.04298,1.7797 -1.39458,2.03469 -2.80568,2.03469 -0.88732,0 -1.61328,-0.19795 -1.61328,-0.43989 z M 42.207052,134.56377 c -0.430531,-0.43054 -1.413302,-2.16263 -2.183922,-3.84909 -0.770605,-1.68646 -2.093278,-4.53594 -2.939232,-6.33219 -4.199723,-8.91734 -8.157389,-17.51819 -8.157389,-17.72779 0,-0.12904 0.693434,-0.23462 1.540947,-0.23462 1.693644,0 0.967858,-1.32377 9.976128,18.19569 1.125029,2.43775 2.665408,5.66384 3.423052,7.16908 0.757644,1.50524 1.262837,2.9224 1.122637,3.14925 -0.416198,0.67343 -1.941488,0.47039 -2.782221,-0.37033 z m 43.526227,0.19961 c -0.416912,-0.32076 -1.961738,-3.20758 -3.432965,-6.41516 -2.946188,-6.42333 -6.002687,-12.94643 -8.416577,-17.96242 -0.864426,-1.79624 -1.570734,-3.43666 -1.569583,-3.64538 9.34e-4,-0.20871 0.665281,-0.31368 1.475865,-0.23328 1.343011,0.13326 1.667836,0.52259 3.661242,4.38853 1.203118,2.33327 2.416894,4.85267 2.69728,5.59867 0.280386,0.74601 2.291448,5.13266 4.469027,9.74814 3.842369,8.14408 4.083928,9.07212 2.367745,9.09695 -0.271712,0.004 -0.835122,-0.2553 -1.252034,-0.57605 z m 8.406807,0.32336 c -0.378479,-0.3785 0.140404,-1.77393 2.419037,-6.50523 0.988662,-2.05285 3.153835,-6.67176 4.811507,-10.26425 5.44189,-11.79364 5.50254,-11.89718 6.96765,-11.89718 0.79708,0 1.30249,0.25009 1.30249,0.64454 0,0.35451 -1.80899,4.50103 -4.01995,9.21449 -2.21097,4.71346 -4.74003,10.14456 -5.62013,12.06911 -3.005629,6.57252 -3.122632,6.75719 -4.374082,6.90313 -0.651123,0.076 -1.320049,0.001 -1.486522,-0.16461 z m 34.460104,-0.4433 c -0.38644,-0.38641 -0.83549,-1.17374 -0.99793,-1.74958 -0.16244,-0.57583 -1.20148,-2.93654 -2.30899,-5.24599 -4.14229,-8.63779 -9.58727,-20.4771 -9.58727,-20.84607 0,-0.21024 0.69429,-0.38224 1.54288,-0.38224 1.20553,0 1.63908,0.24943 1.98286,1.14083 0.38427,0.99635 1.80441,4.05528 9.32585,20.08748 2.61397,5.57177 3.06957,6.75993 2.77486,7.23678 -0.4263,0.68975 -1.93445,0.55662 -2.73226,-0.24121 z m 8.82915,0.2821 c -0.26374,-0.42671 6.97283,-16.58412 11.25224,-25.12345 1.60581,-3.20428 1.77881,-3.38253 3.28286,-3.38253 0.87322,0 1.50539,0.15746 1.40478,0.34992 -0.46167,0.88317 -4.10448,8.61164 -5.44279,11.54726 -6.64493,14.57572 -7.82663,16.79422 -9.0228,16.93941 -0.64975,0.0789 -1.31318,-0.07 -1.47429,-0.33061 z m 43.128,-0.32067 c 0,-0.40765 0.91898,-2.66462 2.04221,-5.0155 1.12322,-2.35086 3.24973,-6.89866 4.72559,-10.10624 1.47585,-3.20757 3.49851,-7.45907 4.49478,-9.44776 1.65294,-3.2995 1.9334,-3.61581 3.20587,-3.61581 0.76695,0 1.39447,0.1953 1.39447,0.434 0,0.2387 -1.81735,4.28025 -4.03857,8.9812 -6.19076,13.10215 -7.28754,15.45028 -7.80581,16.71195 -0.26352,0.64151 -0.78316,1.53381 -1.15475,1.98286 -0.85943,1.0386 -2.86379,1.09128 -2.86379,0.0752 z m 206.05252,-3.57447 c -1.15916,-2.3736 -2.8766,-5.99525 -3.81647,-8.04809 -0.93992,-2.05285 -2.30666,-4.99216 -3.03718,-6.53179 -0.73054,-1.53964 -2.07501,-4.43917 -2.98765,-6.44338 l -1.6594,-3.64405 1.70955,0.14492 1.70952,0.14492 3.139,6.76508 c 1.72642,3.72079 3.7735,8.12974 4.54896,9.79768 4.34438,9.34397 5.19006,11.34238 4.95846,11.71709 -0.14055,0.22735 -0.75087,0.41337 -1.35632,0.41337 -0.92561,0 -1.43653,-0.68727 -3.20847,-4.31564 z m 75.53275,3.87898 c -0.2408,-0.3896 3.04735,-7.91797 7.45094,-17.05919 0.86528,-1.79624 2.45171,-5.10296 3.52539,-7.34826 1.78496,-3.73281 2.06699,-4.08237 3.29347,-4.08237 1.70708,0 1.69346,0.50858 -0.11358,4.23296 -0.8002,1.64926 -1.9252,4.04842 -2.50005,5.33144 -3.21621,7.17854 -8.85748,18.70999 -9.2974,19.00503 -0.72036,0.48314 -2.03852,0.43865 -2.35881,-0.0796 z m 99.48922,-0.1986 c -0.3767,-0.37671 -0.95603,-1.38515 -1.28733,-2.24098 -0.33134,-0.85581 -1.65174,-3.76052 -2.93422,-6.45488 -4.96831,-10.43807 -8.73995,-18.72077 -8.73995,-19.19339 0,-0.2211 0.63112,-0.40197 1.40247,-0.40197 1.32264,0 1.53944,0.28541 3.80966,5.01548 1.324,2.75852 2.98014,6.27518 3.68024,7.81481 0.70018,1.53965 2.44841,5.24337 3.88497,8.23052 3.0037,6.24572 3.31885,7.56211 1.86067,7.77235 -0.54534,0.0786 -1.29976,-0.16523 -1.67651,-0.54194 z m 8.76403,0.21827 c -0.28735,-0.46487 0.42614,-2.33327 2.8696,-7.51445 0.90759,-1.92455 2.43146,-5.17878 3.38635,-7.23163 6.57588,-14.13679 6.35535,-13.76341 8.12915,-13.76341 h 1.62315 l -2.34282,5.01548 c -1.28857,2.75852 -3.03723,6.48514 -3.88594,8.28138 -0.84877,1.79624 -2.75717,5.89027 -4.24096,9.09785 -1.48379,3.20756 -2.92395,5.98619 -3.20038,6.17472 -0.69756,0.47573 -2.02818,0.44163 -2.33815,-0.0599 z M 422.5076,128.23107 c -1.42855,-6.02313 -2.61766,-11.25573 -3.15424,-13.88005 -0.28856,-1.41134 -0.6837,-2.77601 -0.87806,-3.03262 -0.19442,-0.25661 -0.50379,-1.47638 -0.68752,-2.7106 l -0.33411,-2.24404 2.24032,0.14449 2.24026,0.14448 0.64395,2.56607 c 0.35416,1.41133 0.82892,3.6158 1.05501,4.89884 0.22611,1.28303 0.75354,3.9074 1.1721,5.83195 0.41854,1.92454 0.87479,4.07654 1.01382,4.7822 0.13909,0.70566 0.41318,1.28303 0.60928,1.28303 0.79584,0 1.31185,-1.40794 2.30842,-6.29851 0.57518,-2.82267 1.40845,-6.91669 1.85172,-9.09785 l 0.80597,-3.96573 2.18461,-0.14215 c 1.852,-0.12057 2.18209,-0.0146 2.16818,0.69983 -0.0187,0.95716 -0.99017,5.52188 -1.76806,8.30695 -0.28666,1.02643 -1.0582,4.17568 -1.71445,6.99835 -0.65627,2.82266 -1.4245,6.02441 -1.70714,7.11498 l -0.5139,1.98287 h -3.36697 -3.3669 z m -195.43485,-4.37813 c -0.17947,-0.17947 -0.32633,-1.23611 -0.32633,-2.34807 v -2.02174 h 5.15768 5.15769 l -0.14216,2.21615 -0.14216,2.21614 -4.68915,0.13194 c -2.57903,0.0727 -4.836,-0.0148 -5.01549,-0.1944 z m 89.56355,-9.34641 c -0.1711,-0.17107 -0.31106,-2.06062 -0.31106,-4.19901 v -3.88796 h 1.86623 1.86622 v 4.19901 4.199 h -1.55517 c -0.85539,0 -1.69518,-0.13996 -1.86622,-0.31104 z M 221.49385,97.611339 c -0.12744,-0.487391 -0.0863,-1.121558 0.0916,-1.409247 0.23285,-0.376775 6.18645,-0.489084 21.28776,-0.40156 l 20.9645,0.12145 v 1.166392 1.16639 l -21.05604,0.121305 c -20.34619,0.117222 -21.06383,0.09142 -21.28777,-0.764832 z M 273.40206,80.758958 V 63.029796 h 1.63296 1.63294 v 17.729162 17.729143 h -1.63294 -1.63296 z m 43.23424,17.418096 c -0.1711,-0.171066 -0.31106,-7.89724 -0.31106,-17.169276 0,-12.489895 0.14507,-17.003318 0.55987,-17.418115 0.30793,-0.307927 1.14772,-0.559867 1.86622,-0.559867 h 1.30636 v 17.729162 17.729143 h -1.55517 c -0.85539,0 -1.69518,-0.139967 -1.86622,-0.311047 z m 12.75252,-1.088622 v -1.39967 h 10.49752 10.49752 v 1.39967 1.399669 h -10.49752 -10.49752 z m 311.97074,1.088622 c -0.17109,-0.171066 -0.31106,-7.89724 -0.31106,-17.169276 0,-12.489895 0.14507,-17.003318 0.55986,-17.418115 0.30793,-0.307927 1.14773,-0.559867 1.86623,-0.559867 h 1.30636 v 17.729162 17.729143 h -1.55517 c -0.85538,0 -1.69519,-0.139967 -1.86622,-0.311047 z M 20.333284,92.772784 C 19.957472,92.195421 17.831199,87.838951 15.608205,83.09174 12.082801,75.563181 9.1507134,69.346346 7.8546201,66.65195 7.183931,65.257689 7.4165385,64.89602 8.9839638,64.89602 c 1.2734072,0 1.6210352,0.245205 2.1496872,1.516309 0.607982,1.461838 4.467073,9.727779 9.724508,20.829284 1.384726,2.923952 2.408496,5.60082 2.275045,5.948594 -0.379849,0.989873 -2.045557,0.741533 -2.79992,-0.417423 z m 43.734355,0.685402 c -0.503021,-0.319912 -2.150621,-3.634548 -6.544284,-13.165785 -0.887172,-1.924545 -2.316249,-4.96884 -3.175734,-6.765082 -0.859469,-1.796242 -2.087518,-4.420626 -2.728975,-5.83196 l -1.166303,-2.56606 1.426875,-0.15061 c 0.784776,-0.08281 1.595025,0.02216 1.800543,0.233278 0.205532,0.211146 1.667998,3.218218 3.24993,6.682404 1.581946,3.464182 3.770199,8.18808 4.862786,10.497534 4.341439,9.176654 4.93449,10.571424 4.674078,10.992769 -0.323017,0.522659 -1.629711,0.562696 -2.398916,0.07348 z m 95.028111,-0.628977 c 0,-0.546323 0.95295,-3.013239 2.1177,-5.482037 1.16472,-2.468798 3.00912,-6.378264 4.09868,-8.687718 1.08953,-2.309455 3.02339,-6.298527 4.29745,-8.864587 2.16393,-4.358356 2.41631,-4.675191 3.83277,-4.81176 0.83397,-0.08034 1.51631,-0.04812 1.51631,0.07188 0,0.119846 -0.87594,2.075257 -1.94654,4.345204 -1.07062,2.269943 -2.87268,6.121701 -4.0046,8.559473 -1.13192,2.437757 -2.98819,6.321839 -4.12503,8.631294 -1.13685,2.309453 -2.06415,4.461445 -2.06065,4.782203 0.0108,0.903005 -1.75349,2.44942 -2.79298,2.44942 -0.64093,0 -0.93311,-0.311046 -0.93311,-0.993327 z m 43.17493,0.55666 c -0.23286,-0.376787 2.29496,-6.180502 7.22702,-16.592641 0.7293,-1.539651 2.29425,-4.846369 3.47766,-7.348278 2.00607,-4.241118 2.24486,-4.54893 3.52907,-4.54893 1.79773,0 1.77169,0.682996 -0.17478,4.58589 -0.85371,1.711766 -2.29073,4.686924 -3.19339,6.611483 -8.81011,18.784057 -8.21443,17.70758 -9.80677,17.722 -0.43391,0.0044 -0.91038,-0.189363 -1.05881,-0.429524 z m 165.10359,0.07961 c -0.27798,-0.188532 -1.15096,-1.602475 -1.93986,-3.142112 -1.23501,-2.410157 -9.32287,-19.704819 -11.12745,-23.794395 -0.60658,-1.374577 -0.59213,-1.402337 0.80708,-1.5492 0.78363,-0.08223 1.49966,-0.07465 1.59114,0.01677 0.63457,0.634531 13.19996,28.10176 13.00214,28.421847 -0.30321,0.490643 -1.63915,0.517572 -2.33305,0.04695 z m 43.1691,-0.09622 c -0.39932,-0.23373 -1.63547,-2.379335 -2.74699,-4.768017 -2.48501,-5.340321 -5.30223,-11.330891 -8.07619,-17.173358 -1.15743,-2.437761 -2.2529,-4.919374 -2.43439,-5.514715 -0.30443,-0.998809 -0.20957,-1.070893 1.22821,-0.933113 1.32703,0.127137 1.70969,0.460681 2.58033,2.248816 1.21234,2.489929 4.53289,9.562559 6.79036,14.463269 0.88655,1.924544 2.37824,5.148069 3.31484,7.163404 0.93656,2.015334 1.70288,3.957375 1.70288,4.315647 0,0.733805 -1.26255,0.839816 -2.35905,0.198067 z m 29.88587,-0.316602 c 0,-0.423472 2.33298,-5.72472 5.18443,-11.780549 2.85145,-6.05583 5.73827,-12.207292 6.41515,-13.669888 1.12178,-2.423891 1.36496,-2.661355 2.74704,-2.682699 0.83397,-0.01312 1.5163,0.150945 1.5163,0.36406 0,0.213113 -2.43206,5.514365 -5.40459,11.780553 -2.97252,6.266187 -5.72855,12.232876 -6.12453,13.2593 -0.39596,1.026424 -1.13639,2.233638 -1.64545,2.682699 -1.17601,1.037461 -2.68835,1.063632 -2.68835,0.04651 z m 43.57018,-0.715362 c 0.16337,-0.816926 1.20958,-3.388818 2.32489,-5.715316 1.1153,-2.326512 2.94989,-6.213249 4.0769,-8.637213 1.12697,-2.423979 2.99385,-6.308061 4.14858,-8.631308 1.94414,-3.911482 2.21171,-4.234907 3.6158,-4.370282 0.83397,-0.08034 1.51631,-0.04943 1.51631,0.06897 0,0.190529 -1.78793,4.057714 -6.07539,13.140754 -3.07826,6.521249 -5.26131,11.293494 -5.92472,12.951504 -0.72031,1.800208 -1.76623,2.678136 -3.19063,2.678136 -0.63774,0 -0.73194,-0.284468 -0.49174,-1.485312 z m 77.63241,0.850037 c -0.3767,-0.376715 -0.95019,-1.385148 -1.27439,-2.240972 -0.67184,-1.773543 -1.96785,-4.590624 -7.65284,-16.635041 -2.21886,-4.700963 -4.03427,-8.742512 -4.03427,-8.981214 0,-0.238703 0.63545,-0.434014 1.41213,-0.434014 1.34853,0 1.54085,0.26792 4.27001,5.948598 1.57183,3.271726 3.33807,6.998361 3.925,8.281391 0.58688,1.28303 2.12488,4.549406 3.41776,7.258626 2.74948,5.761417 3.05161,7.137161 1.61311,7.344575 -0.54534,0.07859 -1.29976,-0.165249 -1.67651,-0.541949 z m 8.76403,0.218275 c -0.30088,-0.486794 0.45484,-2.421486 3.20845,-8.214294 1.09786,-2.309454 2.62079,-5.563685 3.38435,-7.231624 0.76358,-1.667939 2.46399,-5.289599 3.77875,-8.048112 2.36063,-4.952967 2.4106,-5.015486 4.00889,-5.015486 h 1.61842 l -2.7976,5.948598 c -1.53866,3.271726 -3.29828,6.998361 -3.91021,8.281391 -2.04277,4.282915 -4.35102,9.306925 -5.35463,11.654535 -0.54628,1.277884 -1.24248,2.481891 -1.54705,2.675555 -0.75969,0.483062 -2.07683,0.455184 -2.38937,-0.05059 z M 4.665576,55.564893 v -1.39967 h 21.461595 21.461594 v 1.39967 1.399669 H 26.127171 4.665576 Z m 173.178064,0.116639 0.14764,-1.283031 21.34495,-0.121304 21.34496,-0.121305 v 1.404379 1.404364 H 199.1886 177.69603 Z m 108.2411,0 0.14763,-1.283031 10.38086,-0.125532 10.38088,-0.125533 v 1.408592 1.408593 h -10.52849 -10.5285 z m 65.23222,-0.121451 v -1.404422 l 21.11169,0.121451 21.11167,0.12145 0.14763,1.28303 0.14762,1.283031 h -21.2593 -21.25931 z m 107.94326,0.704588 c -0.14773,-0.384909 -0.14773,-1.01476 0,-1.399669 0.23601,-0.615053 5.4698,-0.699835 43.20637,-0.699835 h 42.93784 v 1.39967 1.399669 h -42.93784 c -37.73657,0 -42.97036,-0.08471 -43.20637,-0.699835 z m 130.46707,-0.699834 v -1.39967 h 20.99504 20.99503 v 1.39967 1.399669 h -20.99503 -20.99504 z"
       id="path209" />
  </g>
</svg>
